<?xml version="1.0" standalone="no"?>
<!DOCTYPE svg PUBLIC "-//W3C//DTD SVG 20010904//EN"
 "http://www.w3.org/TR/2001/REC-SVG-20010904/DTD/svg10.dtd">
<svg version="1.0" xmlns="http://www.w3.org/2000/svg"
 width="195.000000pt" height="191.000000pt" viewBox="0 0 195.000000 191.000000"
 preserveAspectRatio="xMidYMid meet">

<g transform="translate(0.000000,191.000000) scale(0.100000,-0.100000)"
fill="#000000" stroke="none">
<path d="M932 1543 c-20 -4 -22 -9 -18 -34 3 -16 9 -42 12 -59 3 -16 10 -30
15 -30 6 0 8 9 4 20 -5 15 0 21 20 26 36 9 48 35 29 62 -15 22 -19 23 -62 15z
m52 -29 c8 -21 -1 -34 -24 -34 -22 0 -34 15 -26 35 7 20 42 19 50 -1z"/>
<path d="M1067 1503 c-4 -21 -7 -50 -7 -65 0 -26 3 -28 43 -27 l42 1 -32 10
c-22 7 -33 17 -33 30 0 17 5 19 30 13 19 -4 30 -3 30 4 0 6 -11 11 -25 11 -19
0 -25 5 -25 21 0 18 4 20 30 14 19 -4 30 -3 30 4 0 6 -11 11 -24 11 -13 0 -31
2 -39 6 -10 4 -16 -5 -20 -33z"/>
<path d="M795 1508 c-29 -16 -35 -29 -24 -51 8 -14 19 -18 47 -15 28 2 37 -1
37 -12 0 -9 -11 -16 -27 -18 -34 -4 -37 -22 -5 -22 13 0 32 9 43 21 26 29 8
54 -39 54 -41 0 -50 15 -18 30 11 5 21 13 21 17 0 11 -11 9 -35 -4z"/>
<path d="M1207 1463 c-30 -35 -25 -78 11 -96 29 -14 66 -12 56 4 -3 5 -10 7
-15 4 -16 -10 -48 5 -54 25 -15 48 38 78 77 43 16 -15 18 -15 18 0 0 35 -66
49 -93 20z"/>
<path d="M1331 1354 c-22 -26 -38 -50 -35 -55 5 -9 84 78 84 93 0 15 -8 8 -49
-38z"/>
<path d="M598 1384 c-4 -3 7 -29 24 -57 39 -64 37 -62 44 -54 4 4 2 12 -4 19
-14 18 9 48 37 48 36 0 23 15 -26 29 -27 8 -53 16 -59 18 -5 2 -13 1 -16 -3z
m53 -25 c17 -9 18 -13 8 -26 -12 -13 -14 -13 -26 3 -24 32 -16 42 18 23z"/>
<path d="M1383 1297 c-29 -12 -53 -26 -53 -31 0 -4 7 -5 16 -2 25 10 55 -22
48 -50 -10 -41 5 -26 35 35 27 52 30 73 12 70 -3 -1 -30 -11 -58 -22z m47 -5
c0 -5 -6 -16 -13 -26 -12 -16 -14 -16 -26 -2 -11 13 -10 17 10 25 31 12 29 12
29 3z"/>
<path d="M495 1250 c-21 -41 -19 -48 18 -64 74 -30 76 -30 92 8 19 44 10 69
-21 63 -13 -2 -29 2 -35 9 -18 22 -37 16 -54 -16z m49 2 c6 -10 -4 -52 -13
-52 -19 1 -32 20 -26 39 6 21 29 28 39 13z m56 -25 c0 -7 -6 -21 -12 -30 -18
-23 -42 -7 -33 22 7 23 45 30 45 8z"/>
<path d="M1454 1172 l-52 -27 16 -32 c9 -18 19 -33 24 -33 5 0 2 13 -6 29
l-15 28 50 23 c27 13 49 27 49 32 0 12 -11 9 -66 -20z"/>
<path d="M954 1145 c-4 -8 -2 -21 4 -28 6 -7 12 -33 15 -57 l4 -45 1 46 c1 25
7 50 13 56 15 15 4 43 -16 43 -9 0 -18 -7 -21 -15z"/>
<path d="M436 1088 c-11 -54 -9 -56 47 -60 60 -5 77 4 77 41 0 40 -11 48 -66
49 -50 1 -52 0 -58 -30z m104 -18 c0 -23 -3 -27 -20 -23 -22 6 -28 48 -7 56
19 7 27 -2 27 -33z m-50 5 c0 -18 -5 -25 -20 -25 -15 0 -20 7 -20 25 0 18 5
25 20 25 15 0 20 -7 20 -25z"/>
<path d="M1000 1072 c0 -5 11 -14 25 -20 29 -13 31 -10 9 12 -17 17 -34 21
-34 8z"/>
<path d="M932 1058 c-27 -27 -7 -61 51 -86 25 -11 28 -16 22 -45 -6 -30 -5
-31 10 -13 8 11 15 25 15 31 0 15 -27 38 -64 53 -25 11 -28 17 -22 42 6 34 5
35 -12 18z"/>
<path d="M1460 1041 c-24 -4 -31 -9 -22 -14 14 -9 88 0 112 14 18 10 -35 10
-90 0z"/>
<path d="M1513 983 c-7 -2 -17 -20 -23 -39 -14 -42 -36 -39 -34 5 1 17 -2 31
-7 31 -12 0 -11 -77 1 -85 20 -12 49 6 55 35 9 40 33 38 37 -2 3 -26 6 -29 12
-15 17 36 -9 81 -41 70z"/>
<path d="M443 950 c-33 -13 -30 -32 3 -20 38 15 84 12 91 -5 8 -23 -23 -52
-64 -60 -22 -4 -32 -10 -26 -16 10 -10 67 5 91 24 15 12 16 59 0 75 -14 14
-63 15 -95 2z"/>
<path d="M973 895 c0 -33 2 -45 4 -27 2 18 2 45 0 60 -2 15 -4 0 -4 -33z"/>
<path d="M930 871 c-14 -27 -3 -49 34 -68 17 -9 34 -21 38 -27 5 -8 8 -7 8 2
0 7 -16 22 -36 34 -31 18 -35 25 -30 50 6 33 1 36 -14 9z"/>
<path d="M1520 820 c0 -19 -4 -21 -26 -16 -64 16 -87 19 -81 9 4 -6 27 -16 52
-22 39 -10 45 -15 40 -31 -4 -11 -2 -20 3 -20 12 0 32 89 21 96 -5 3 -9 -5 -9
-16z"/>
<path d="M515 798 c-48 -25 -50 -26 -43 -34 3 -3 25 4 48 16 40 20 43 21 61 4
17 -15 19 -15 19 -1 0 9 -9 21 -19 27 -24 12 -18 13 -66 -12z"/>
<path d="M620 528 c-24 -36 -33 -55 -16 -34 13 17 18 17 33 5 16 -13 17 -12 5
2 -7 9 -10 24 -6 33 9 23 1 20 -16 -6z"/>
<path d="M660 479 c-12 -16 -21 -32 -18 -34 2 -2 13 12 26 31 28 42 21 45 -8
3z"/>
<path d="M1371 488 c10 -22 15 -25 30 -17 23 12 25 21 4 12 -9 -3 -22 2 -31
13 -13 17 -13 17 -3 -8z"/>
<path d="M1261 443 c0 -27 3 -41 6 -33 3 8 11 18 17 22 8 5 7 8 -1 8 -7 0 -13
10 -13 23 1 20 3 19 30 -13 16 -19 30 -30 30 -24 0 11 -52 64 -63 64 -4 0 -7
-21 -6 -47z"/>
<path d="M732 468 c-17 -17 -15 -43 5 -59 15 -13 15 -12 3 7 -20 32 -6 57 30
52 16 -2 27 -1 24 4 -8 12 -48 10 -62 -4z"/>
<path d="M1162 423 c14 -52 18 -53 15 -5 -1 24 -7 42 -14 42 -8 0 -9 -10 -1
-37z"/>
<path d="M800 442 c0 -6 -10 -21 -22 -32 -18 -16 -19 -20 -5 -14 19 7 42 42
33 52 -3 3 -6 0 -6 -6z"/>
<path d="M863 435 c-3 -9 1 -21 10 -28 8 -7 17 -19 20 -27 4 -10 6 -8 6 6 1
12 -6 24 -14 28 -23 8 -18 29 5 23 11 -3 18 -1 14 4 -9 14 -34 10 -41 -6z"/>
<path d="M960 398 c0 -23 3 -38 7 -35 3 4 6 20 5 37 0 24 4 30 20 30 16 0 19
-5 15 -21 -4 -16 -3 -19 5 -11 17 17 1 42 -27 42 -23 0 -25 -4 -25 -42z"/>
<path d="M1083 400 c0 -25 2 -35 4 -22 2 12 2 32 0 45 -2 12 -4 2 -4 -23z"/>
<path d="M850 376 c0 -2 7 -7 16 -10 8 -3 12 -2 9 4 -6 10 -25 14 -25 6z"/>
</g>
</svg>
